<?xml version="1.0" standalone="no"?>
<!DOCTYPE svg PUBLIC "-//W3C//DTD SVG 20010904//EN"
 "http://www.w3.org/TR/2001/REC-SVG-20010904/DTD/svg10.dtd">
<svg version="1.0" xmlns="http://www.w3.org/2000/svg"
 width="225.000000pt" height="225.000000pt" viewBox="0 0 225.000000 225.000000"
 preserveAspectRatio="xMidYMid meet">

<g transform="translate(0.000000,225.000000) scale(0.100000,-0.100000)"
fill="#000000" stroke="none">
<path d="M1234 700 c-26 -10 -54 -48 -54 -72 0 -10 -7 -18 -15 -18 -10 0 -15
-10 -15 -30 0 -20 5 -30 15 -30 12 0 15 -17 15 -95 l0 -95 35 0 35 0 0 95 c0
95 0 95 25 95 21 0 25 5 25 30 0 25 -4 30 -25 30 -14 0 -25 5 -25 10 0 6 11
15 25 20 19 7 25 17 25 40 0 25 -4 30 -22 29 -13 0 -33 -4 -44 -9z"/>
<path d="M1403 703 c-27 -5 -63 -48 -63 -74 0 -11 -7 -19 -15 -19 -10 0 -15
-10 -15 -30 0 -20 5 -30 15 -30 12 0 15 -17 15 -95 l0 -95 35 0 35 0 0 95 c0
95 0 95 25 95 21 0 25 5 25 30 0 25 -4 30 -25 30 -18 0 -23 4 -19 15 4 8 15
15 25 15 15 0 19 7 19 35 0 37 -4 38 -57 28z"/>
<path d="M429 582 c-27 -24 -33 -37 -36 -83 -4 -45 -1 -60 19 -89 37 -54 101
-65 142 -24 15 14 16 12 16 -18 0 -19 -5 -39 -12 -46 -17 -17 -63 -15 -78 3
-16 19 -80 20 -80 1 0 -26 42 -66 81 -76 77 -21 140 11 159 79 5 20 10 91 10
159 l0 122 -40 0 c-30 0 -40 -4 -40 -16 0 -14 -2 -14 -22 0 -35 25 -83 20
-119 -12z m123 -49 c20 -18 24 -73 6 -91 -21 -21 -66 -14 -83 12 -38 58 27
125 77 79z"/>
<path d="M700 485 l0 -125 35 0 35 0 0 63 c0 76 18 107 61 107 27 0 29 2 29
40 0 47 -15 52 -61 19 l-29 -20 0 20 c0 17 -6 21 -35 21 l-35 0 0 -125z"/>
<path d="M870 601 c0 -5 22 -58 49 -118 l48 -109 -28 -63 -28 -62 41 3 41 3
74 174 c40 96 73 176 73 177 0 2 -18 4 -39 4 l-39 0 -27 -75 c-15 -41 -29 -75
-30 -75 -2 0 -15 34 -30 75 l-28 75 -38 0 c-22 0 -39 -4 -39 -9z"/>
<path d="M1490 484 l0 -125 38 3 37 3 3 123 3 122 -41 0 -40 0 0 -126z"/>
<path d="M1620 485 l0 -125 35 0 35 0 0 73 c0 81 16 117 54 117 38 0 46 -19
46 -107 l0 -83 35 0 35 0 0 100 c0 94 -2 103 -25 125 -30 31 -82 33 -119 4
l-26 -20 0 20 c0 17 -6 21 -35 21 l-35 0 0 -125z"/>
</g>
</svg>
